<?xml version="1.0"?><svg width="1000" height="1000" xmlns="http://www.w3.org/2000/svg">
 <g>
  <title>Layer 1</title>
  <g id="layer1">
   <path fill="#000000" id="rect1312" d="m493.484344,15.64231c-62.871948,85.412843 -149.298187,219.123391 -148.001373,298.339868c1.053162,67.223358 83.093597,173.190094 113.992157,303.38147l-25.718903,0c-30.238037,-144.207581 -157.272644,-327.737152 -272.450668,-294.359619c-136.103107,39.441467 -124.081844,178.90451 -72.634666,262.340942c27.936043,-44.516602 60.104515,-97.168762 136.696388,-94.552429c72.304016,2.516724 107.949341,62.181824 133.022247,126.571106c-20.408813,0 -36.83551,13.826477 -36.83551,31.045776c0,17.219177 16.426727,31.045776 36.83551,31.045715l15.355957,0c4.984222,45.516479 -2.796173,91.020081 -31.371399,98.974915c-37.053192,10.315063 -58.789948,-10.717834 -81.961304,-47.231995c-14.852859,36.362488 -30.06868,139.315063 51.626221,159.739624c78.159698,19.540588 126.645081,-62.394226 128.594452,-211.482544l29.110382,0c0.907776,10.512817 1.40506,21.165894 1.413116,31.930176c0.064423,82.246033 -44.644592,137.665222 -46.067902,172.21106c-1.436432,34.865051 37.682037,75.048096 68.58371,96.940552c30.598419,-21.892578 69.643341,-62.0755 68.206879,-96.940552c-1.423279,-34.545776 -46.132263,-89.964905 -46.067932,-172.21106c0.008118,-10.764343 0.505432,-21.417358 1.413208,-31.930176l26.849365,0c1.949402,149.088318 50.528992,231.023254 128.68866,211.482544c81.694885,-20.424561 66.384827,-123.377136 51.531982,-159.739624c-23.171326,36.51416 -44.90802,57.546936 -81.961304,47.231995c-28.575195,-7.954834 -36.355591,-53.458435 -31.371338,-98.974915l17.993713,0c20.408813,0 36.83551,-13.826538 36.83551,-31.045715c0,-17.219238 -16.426697,-31.045776 -36.83551,-31.045776l-2.637817,0c25.072937,-64.389282 60.8125,-124.054382 133.116455,-126.571106c76.591858,-2.616333 108.666138,50.036011 136.602173,94.552429c51.447205,-83.436432 63.562683,-222.899506 -72.540466,-262.340942c-115.178528,-33.377686 -242.307495,150.151764 -272.544861,294.359619l-23.457886,0c30.898499,-130.191467 112.939026,-236.158234 113.992188,-303.38147c1.296814,-79.216446 -85.129456,-212.927078 -148.001434,-298.339868z"/>
  </g>
 </g>
</svg>